<svg xmlns="http://www.w3.org/2000/svg" viewBox="0 0 128 128" role="img" aria-labelledby="title desc">
  <title id="title">DAVID'S football website trophy logo mark</title>
  <desc id="desc">An original world tournament style football trophy badge.</desc>
  <defs>
    <linearGradient id="edge" x1="12" y1="8" x2="116" y2="120" gradientUnits="userSpaceOnUse">
      <stop offset="0" stop-color="#00f5ff"/>
      <stop offset="0.28" stop-color="#6ef3b3"/>
      <stop offset="0.55" stop-color="#ffe95c"/>
      <stop offset="0.78" stop-color="#ff5aa5"/>
      <stop offset="1" stop-color="#8b5cff"/>
    </linearGradient>
    <linearGradient id="gold" x1="42" y1="18" x2="88" y2="108" gradientUnits="userSpaceOnUse">
      <stop offset="0" stop-color="#fff4a8"/>
      <stop offset="0.45" stop-color="#ffd35a"/>
      <stop offset="1" stop-color="#f6943d"/>
    </linearGradient>
    <linearGradient id="green" x1="36" y1="52" x2="92" y2="112" gradientUnits="userSpaceOnUse">
      <stop offset="0" stop-color="#6ef3b3"/>
      <stop offset="1" stop-color="#098f68"/>
    </linearGradient>
  </defs>

  <rect width="128" height="128" rx="30" fill="#07110c"/>
  <rect x="6" y="6" width="116" height="116" rx="26" fill="url(#edge)"/>
  <rect x="13" y="13" width="102" height="102" rx="22" fill="#08170f"/>

  <path d="M64 18c17 0 31 12.8 31 28.6 0 12.3-8.5 22.8-20.5 26.8L84 99H44l9.5-25.6C41.5 69.4 33 58.9 33 46.6 33 30.8 47 18 64 18Z" fill="url(#gold)"/>
  <path d="M45 46c8-13 30-13 38 0-5 4-12 7-19 7s-14-3-19-7Z" fill="#08170f" opacity="0.24"/>
  <path d="M40 46c7 8 15 12 24 12s17-4 24-12" fill="none" stroke="#fff8cf" stroke-width="4" stroke-linecap="round" opacity="0.85"/>
  <path d="M48 33c4 10 10 15 16 15s12-5 16-15" fill="none" stroke="#fff8cf" stroke-width="3" stroke-linecap="round" opacity="0.7"/>

  <path d="M50 78h28l9 25H41l9-25Z" fill="url(#green)"/>
  <path d="M38 103h52l7 11H31l7-11Z" fill="#f8fff9"/>
  <path d="M44 108h40" fill="none" stroke="#07110c" stroke-width="4" stroke-linecap="round"/>

  <circle cx="92" cy="35" r="14" fill="#f8fff9"/>
  <path d="M92 25 97 29 95 35H89L87 29 92 25Z" fill="#07110c"/>
  <path d="M89 35 84 39 86 45H92V35h-3Z" fill="#07110c"/>
  <path d="M95 35H92v10h6l2-6-5-4Z" fill="#07110c"/>
</svg>
