<svg xmlns="http://www.w3.org/2000/svg" viewBox="0 0 640 180" role="img" aria-labelledby="title desc">
  <title id="title">DAVID'S football website logo</title>
  <desc id="desc">A neon football badge next to the words DAVID'S football website.</desc>
  <defs>
    <linearGradient id="rainbow" x1="0" y1="0" x2="180" y2="180" gradientUnits="userSpaceOnUse">
      <stop offset="0" stop-color="#00f5ff"/>
      <stop offset="0.25" stop-color="#6ef3b3"/>
      <stop offset="0.5" stop-color="#ffe95c"/>
      <stop offset="0.75" stop-color="#ff5aa5"/>
      <stop offset="1" stop-color="#8b5cff"/>
    </linearGradient>
  </defs>

  <rect width="640" height="180" rx="28" fill="#07110c"/>
  <g transform="translate(26 26)">
    <rect width="128" height="128" rx="30" fill="url(#rainbow)"/>
    <rect x="8" y="8" width="112" height="112" rx="25" fill="#08170f"/>
    <path d="M36 96V32h27c9.8 0 17.8 3 24 8.9 6.2 5.9 9.3 13.6 9.3 23.1S93.2 81.3 87 87.1C80.8 93 72.8 96 63 96H36Zm17.7-16.1h8.6c4.9 0 8.8-1.4 11.8-4.3 3-2.9 4.5-6.8 4.5-11.6s-1.5-8.7-4.5-11.6c-3-2.9-6.9-4.3-11.8-4.3h-8.6v31.8Z" fill="#f8fff9"/>
    <circle cx="92" cy="88" r="20" fill="#f8fff9"/>
    <path d="M92 74 100 80 97 89H87L84 80 92 74Z" fill="#07110c"/>
    <path d="M87 89 80 94 83 103H92V89h-5Z" fill="#07110c"/>
    <path d="M97 89H92v14h9L104 94 97 89Z" fill="#07110c"/>
  </g>

  <text x="182" y="82" fill="#f8fff9" font-family="Georgia, 'Times New Roman', serif" font-size="42" font-weight="700">
    DAVID'S
  </text>
  <text x="182" y="124" fill="#d8efe3" font-family="Verdana, Arial, sans-serif" font-size="28" font-weight="700">
    football website
  </text>
  <text x="184" y="151" fill="#95b8a8" font-family="Verdana, Arial, sans-serif" font-size="14" font-weight="700">
    Friendlies • Tournaments • Live scores
  </text>
</svg>
